<?xml version="1.0" standalone="no"?>
<!DOCTYPE svg PUBLIC "-//W3C//DTD SVG 20010904//EN"
 "http://www.w3.org/TR/2001/REC-SVG-20010904/DTD/svg10.dtd">
<svg version="1.0" xmlns="http://www.w3.org/2000/svg"
 width="1080.000000pt" height="1080.000000pt" viewBox="0 0 1080.000000 1080.000000"
 preserveAspectRatio="xMidYMid meet">

<g transform="translate(0.000000,1080.000000) scale(0.100000,-0.100000)"
fill="#000000" stroke="none">
<path d="M4010 7586 c0 -32 -3 -35 -32 -38 -27 -2 -34 -8 -36 -30 -3 -22 -9
-27 -35 -30 -28 -3 -32 -7 -35 -35 -3 -26 -8 -32 -30 -35 -22 -2 -28 -9 -30
-35 -3 -28 -7 -32 -35 -35 -26 -2 -33 -8 -35 -30 -3 -21 -9 -27 -30 -30 -22
-2 -28 -9 -30 -35 -3 -28 -7 -32 -35 -35 -28 -3 -32 -7 -35 -35 -3 -29 -7 -33
-32 -33 -24 0 -29 -5 -32 -27 -2 -22 -9 -29 -33 -33 -25 -4 -30 -10 -33 -38
-3 -29 -6 -32 -37 -32 -31 0 -34 -3 -37 -32 -2 -27 -8 -34 -29 -36 -21 -2 -28
-10 -33 -33 -5 -24 -10 -29 -36 -29 -28 0 -30 -3 -30 -34 0 -32 -3 -35 -32
-38 -28 -3 -34 -8 -38 -33 -4 -24 -11 -31 -33 -33 -22 -3 -27 -8 -27 -32 0
-25 -4 -29 -32 -32 -29 -3 -33 -7 -36 -35 -3 -29 -7 -33 -33 -33 -25 0 -29 -4
-29 -29 0 -26 -4 -30 -32 -33 -29 -3 -33 -7 -36 -35 -3 -30 -6 -33 -37 -33
-31 0 -34 -3 -37 -32 -2 -27 -8 -34 -30 -36 -20 -2 -28 -10 -33 -32 -5 -22
-13 -30 -33 -32 -22 -2 -28 -9 -30 -35 -3 -28 -7 -32 -35 -35 -27 -2 -33 -8
-37 -33 -4 -23 -10 -30 -30 -30 -19 0 -27 -7 -35 -32 -7 -27 -14 -33 -37 -33
-25 0 -28 -3 -28 -35 0 -32 -2 -35 -30 -35 -26 0 -31 -5 -36 -29 -5 -23 -13
-31 -33 -33 -20 -2 -27 -10 -31 -33 -4 -24 -11 -31 -35 -35 -25 -4 -31 -10
-33 -38 -3 -28 -7 -32 -32 -32 -24 0 -29 -5 -32 -27 -2 -23 -8 -29 -35 -31
-30 -3 -33 -6 -33 -37 0 -31 -3 -34 -32 -37 -27 -2 -34 -8 -36 -30 -3 -21 -9
-27 -30 -30 -26 -3 -27 -6 -30 -65 l-3 -63 30 0 c26 0 30 -4 33 -32 l3 -33
133 -3 132 -3 0 -1324 0 -1325 3210 0 3210 0 2 1323 3 1322 130 5 130 5 3 33
c3 28 7 32 33 32 l30 0 -3 63 c-3 59 -4 62 -30 65 -23 3 -28 8 -28 32 0 25 -4
29 -32 32 -29 3 -33 7 -36 36 -3 28 -7 32 -32 32 -24 0 -29 5 -32 27 -2 22 -9
29 -33 33 -25 4 -31 10 -33 37 -3 28 -7 32 -35 35 -28 3 -32 7 -35 36 -3 28
-7 32 -33 32 -25 0 -29 4 -29 29 0 26 -4 30 -32 33 -29 3 -33 7 -36 35 -3 28
-7 32 -35 35 -26 2 -33 8 -35 30 -3 21 -9 27 -30 30 -22 2 -28 9 -30 36 -3 29
-6 32 -37 32 -31 0 -34 3 -37 33 -2 27 -8 33 -30 35 -23 3 -28 8 -28 32 0 25
-4 29 -32 32 -29 3 -33 7 -36 35 -3 28 -7 32 -35 35 -28 3 -32 7 -35 36 -3 28
-7 32 -32 32 -24 0 -29 5 -32 28 -2 22 -8 28 -35 30 -28 3 -32 7 -35 35 -2 27
-8 33 -33 37 -22 4 -30 11 -30 27 -1 28 -11 38 -38 38 -16 0 -23 8 -27 30 -4
25 -10 31 -37 33 -28 3 -32 7 -35 35 -2 27 -8 33 -30 35 -23 3 -28 8 -28 32 0
25 -4 29 -32 32 -29 3 -33 7 -36 36 -3 29 -6 32 -37 32 -31 0 -34 3 -37 33 -2
26 -8 33 -29 35 -21 2 -28 10 -33 33 -5 24 -10 29 -36 29 -28 0 -30 3 -30 34
0 32 -3 35 -32 38 -29 3 -33 7 -36 36 -3 28 -7 32 -32 32 -24 0 -29 5 -32 28
-2 22 -8 28 -35 30 -30 3 -33 6 -33 37 0 31 -3 34 -32 37 -29 3 -33 7 -36 36
-3 28 -7 32 -32 32 -24 0 -29 5 -32 28 -2 22 -8 28 -35 30 -28 3 -32 7 -35 35
l-3 32 -1617 3 -1618 2 0 -34z m153 -773 c-7 -2 -19 -2 -25 0 -7 3 -2 5 12 5
14 0 19 -2 13 -5z m105 0 c-10 -2 -28 -2 -40 0 -13 2 -5 4 17 4 22 1 32 -1 23
-4z m95 0 c-7 -2 -21 -2 -30 0 -10 3 -4 5 12 5 17 0 24 -2 18 -5z m75 0 c-10
-2 -26 -2 -35 0 -10 3 -2 5 17 5 19 0 27 -2 18 -5z m-768 -593 c0 -68 -1 -70
-25 -70 -20 0 -25 5 -25 24 0 13 -3 44 -6 70 l-7 46 32 0 31 0 0 -70z m1259
-17 c-1 -49 -3 -80 -6 -70 -3 10 -14 17 -29 17 -23 0 -24 3 -24 70 l0 70 30 0
30 0 -1 -87z m164 -71 c-4 -16 5 -18 79 -21 113 -3 113 -11 0 -11 -91 0 -92 0
-92 25 0 14 4 25 9 25 5 0 7 -8 4 -18z m-1426 -24 c-3 -7 -5 -2 -5 12 0 14 2
19 5 13 2 -7 2 -19 0 -25z m1260 -65 c-3 -10 -5 -4 -5 12 0 17 2 24 5 18 2 -7
2 -21 0 -30z m-679 -282 c30 -1 32 -3 28 -28 -2 -16 -5 -32 -5 -37 -1 -4 -14
-6 -31 -4 l-30 5 0 -98 c0 -54 -4 -100 -8 -103 -4 -2 -52 -2 -105 1 l-97 6 0
63 0 64 40 0 c38 0 40 -2 40 -30 0 -27 3 -30 30 -30 l31 0 -3 63 c-3 62 -3 62
-35 65 -29 3 -33 7 -33 31 0 15 3 31 7 35 4 3 36 4 72 2 36 -3 81 -5 99 -5z
m225 0 c4 0 7 -14 7 -31 0 -27 3 -30 30 -30 l30 0 0 -100 0 -100 -35 0 c-32 0
-35 2 -35 30 0 27 -3 30 -29 30 -26 0 -30 -4 -33 -32 -3 -29 -6 -33 -33 -33
l-30 0 -3 103 -3 102 31 0 c26 0 30 3 30 28 0 16 2 31 5 33 4 4 44 4 68 0z
m-923 -96 l0 -95 65 0 65 0 0 -35 0 -35 -100 0 -100 0 0 130 0 130 35 0 35 0
0 -95z m390 -5 l0 -100 -30 0 c-27 0 -30 -3 -30 -30 0 -28 -2 -30 -40 -30 -38
0 -40 2 -40 30 0 27 -3 30 -30 30 l-30 0 0 70 0 70 30 0 c27 0 30 3 30 30 l0
30 70 0 70 0 0 -100z m930 70 c0 -28 3 -30 35 -30 33 0 35 -2 35 -35 0 -32 2
-35 30 -35 l30 0 0 -100 0 -100 -135 0 -135 0 0 100 0 100 65 0 65 0 0 35 c0
32 -2 35 -30 35 -27 0 -30 3 -30 30 0 28 3 30 35 30 32 0 35 -2 35 -30z m791
-119 c-8 -5 -23 -7 -35 -5 -11 2 -24 -2 -28 -9 -5 -8 -8 -8 -8 -1 0 7 -22 12
-55 13 -30 0 -55 -3 -55 -9 0 -5 -7 -7 -15 -4 -40 16 -5 24 98 24 70 0 107 -4
98 -9z m-206 -31 c14 -6 -3 -8 -50 -8 -64 1 -66 2 -25 8 25 4 47 7 50 8 3 0
14 -3 25 -8z m-2232 -27 c-29 -2 -77 -2 -105 0 -29 2 -6 3 52 3 58 0 81 -1 53
-3z m-686 -210 c4 -9 6 -89 6 -177 -2 -259 -5 -382 -10 -363 -2 9 -9 15 -14
12 -5 -4 -10 2 -11 12 0 10 -4 -2 -8 -27 -4 -25 -8 91 -8 258 -2 297 -2 302
18 302 11 0 24 -8 27 -17z m932 -345 l-1 -33 -7 30 c-6 28 -7 28 -13 7 -6 -20
-11 -22 -55 -19 -27 2 -54 7 -61 11 -7 4 -16 5 -21 1 -5 -3 -12 -1 -16 5 -4 6
14 11 47 12 29 1 -48 5 -172 8 l-225 6 263 2 262 2 -1 -32z m1193 1 l-4 -30
-172 4 c-94 3 -175 5 -181 5 -5 1 -178 -2 -382 -4 l-373 -5 0 31 0 30 558 0
559 0 -5 -31z m1128 0 c0 -27 -3 -30 -27 -27 -16 2 -31 10 -35 18 -5 11 -7 10
-7 -5 -1 -16 -3 -17 -10 -5 -13 20 -5 30 27 32 15 2 -175 5 -423 8 l-450 5
463 3 462 2 0 -31z m-608 2 c8 11 9 11 6 1 -4 -16 -22 -18 -25 -2 -1 7 0 6 4
-1 4 -8 8 -7 15 2z m72 -17 c3 -8 2 -12 -4 -9 -6 3 -10 10 -10 16 0 14 7 11
14 -7z m2196 -314 l0 -100 -65 0 -65 0 0 93 c0 52 3 97 7 100 3 4 33 7 65 7
l58 0 0 -100z m260 0 l0 -100 -60 0 -60 0 0 100 0 100 60 0 60 0 0 -100z
m-1699 7 c-1 -34 -5 -64 -7 -67 -3 -2 -4 28 -3 68 1 40 4 70 7 67 3 -3 4 -33
3 -68z m-2475 -193 c-3 -9 -6 -21 -6 -28 0 -7 -7 -13 -15 -13 -9 0 -14 6 -11
14 8 19 -4 16 -20 -4 -12 -17 -12 -17 -11 1 2 20 5 19 -124 17 -24 -1 -38 -5
-34 -11 3 -5 1 -10 -4 -10 -6 0 -11 3 -11 8 0 4 -11 12 -25 19 -14 6 -23 8
-20 3 2 -4 -22 -7 -55 -8 -35 0 -60 4 -60 10 0 7 -4 7 -12 1 -18 -13 -81 -16
-73 -3 9 14 -8 13 -24 -2 -11 -11 -12 -10 -6 2 8 13 7 13 -8 1 -10 -8 -17 -9
-17 -3 0 6 -12 13 -27 15 -16 2 106 5 271 6 268 1 298 -1 292 -15z m2494 -49
c4 3 10 -4 13 -15 3 -11 1 -18 -4 -14 -12 7 -11 -3 1 -27 8 -14 7 -19 -2 -19
-9 0 -9 -3 2 -11 11 -8 12 -12 2 -16 -6 -2 -10 -9 -6 -14 3 -5 -4 -9 -15 -9
-20 0 -21 6 -20 88 0 70 2 82 11 59 5 -15 13 -25 18 -22z m-2660 21 c0 -2 -7
-6 -15 -10 -8 -3 -15 -1 -15 4 0 6 7 10 15 10 8 0 15 -2 15 -4z m80 0 c0 -3
-4 -8 -10 -11 -5 -3 -10 -1 -10 4 0 6 5 11 10 11 6 0 10 -2 10 -4z m4000 -151
l0 -136 -62 3 -63 3 -3 133 -3 132 66 0 65 0 0 -135z m260 0 l0 -135 -44 0
c-78 0 -76 -3 -76 141 l0 129 60 0 60 0 0 -135z m-4230 -359 c0 -30 -9 -32
-150 -30 -206 3 -216 4 -200 14 16 10 15 11 -20 27 -20 9 17 12 173 12 l197 1
0 -24z m1513 17 c-7 -2 -19 -2 -25 0 -7 3 -2 5 12 5 14 0 19 -2 13 -5z m155 0
c-10 -2 -28 -2 -40 0 -13 2 -5 4 17 4 22 1 32 -1 23 -4z m292 -2 c-25 -4 -57
-6 -72 -4 -16 1 -28 -2 -28 -7 0 -5 -17 -8 -37 -6 -26 3 -42 -2 -51 -13 -13
-15 -13 -15 -8 1 3 12 -1 15 -20 13 -13 -1 -32 4 -41 11 -15 11 7 13 142 12
93 -1 141 -4 115 -7z m77 3 c-3 -3 -12 -4 -19 -1 -8 3 -5 6 6 6 11 1 17 -2 13
-5z m120 0 c-3 -3 -12 -4 -19 -1 -8 3 -5 6 6 6 11 1 17 -2 13 -5z m40 0 c-3
-3 -12 -4 -19 -1 -8 3 -5 6 6 6 11 1 17 -2 13 -5z m-373 -36 c-3 -4 -9 -8 -15
-8 -5 0 -9 4 -9 8 0 5 7 9 15 9 8 0 12 -4 9 -9z m-834 -118 l0 -100 -65 0 -65
0 0 100 0 100 65 0 65 0 0 -100z m-1165 -380 c-165 -5 -180 -7 -179 -23 2 -15
-1 -16 -14 -5 -13 11 -15 10 -9 -5 6 -15 4 -16 -14 -6 -15 8 -19 8 -15 0 4 -6
4 -11 1 -11 -4 0 -16 5 -27 11 -16 9 -19 8 -12 -3 6 -11 5 -11 -8 0 -12 10
-17 10 -20 1 -3 -8 -14 -10 -31 -5 -20 5 -27 13 -27 31 l0 25 268 -2 c263 -2
264 -2 87 -8z m2258 3 c-128 -2 -338 -2 -465 0 -128 1 -24 2 232 2 256 0 360
-1 233 -2z m-2093 -22 c0 -5 -8 -11 -18 -13 -11 -3 -19 0 -19 8 0 8 9 14 19
14 10 0 18 -4 18 -9z m2080 5 c0 -2 -9 -6 -20 -9 -11 -3 -18 -1 -14 4 5 9 34
13 34 5z m80 -2 c0 -8 -19 -13 -24 -6 -3 5 1 9 9 9 8 0 15 -2 15 -3z m33 -7
c7 3 8 2 4 -2 -14 -16 -36 -14 -29 3 4 10 7 12 10 4 2 -7 9 -9 15 -5z"/>
<path d="M4417 5694 c-4 -4 -7 -20 -7 -36 0 -25 4 -28 31 -28 28 0 30 2 27 33
-2 23 -8 33 -23 35 -12 2 -24 0 -28 -4z"/>
<path d="M3810 5635 l0 -65 30 0 30 0 0 65 0 65 -30 0 -30 0 0 -65z"/>
<path d="M4800 5530 l0 -30 70 0 70 0 -2 30 -2 30 -68 0 -68 0 0 -30z"/>
<path d="M2500 4869 c0 -11 4 -18 10 -14 5 3 7 12 3 20 -7 21 -13 19 -13 -6z"/>
<path d="M3643 5014 c7 -7 158 -6 166 1 2 3 -35 5 -84 5 -49 0 -86 -3 -82 -6z"/>
<path d="M4140 5010 c0 -5 7 -7 15 -4 8 4 15 8 15 10 0 2 -7 4 -15 4 -8 0 -15
-4 -15 -10z"/>
<path d="M4268 5013 c6 -2 18 -2 25 0 6 3 1 5 -13 5 -14 0 -19 -2 -12 -5z"/>
<path d="M4488 5013 c6 -2 18 -2 25 0 6 3 1 5 -13 5 -14 0 -19 -2 -12 -5z"/>
<path d="M4563 5013 c9 -2 23 -2 30 0 6 3 -1 5 -18 5 -16 0 -22 -2 -12 -5z"/>
</g>
</svg>
