<?xml version="1.0" standalone="no"?>
<!DOCTYPE svg PUBLIC "-//W3C//DTD SVG 20010904//EN"
 "http://www.w3.org/TR/2001/REC-SVG-20010904/DTD/svg10.dtd">
<svg version="1.0" xmlns="http://www.w3.org/2000/svg"
 width="1080.000000pt" height="1080.000000pt" viewBox="0 0 1080.000000 1080.000000"
 preserveAspectRatio="xMidYMid meet">

<g transform="translate(0.000000,1080.000000) scale(0.100000,-0.100000)"
fill="#000000" stroke="none">
<path d="M3357 8263 c-4 -3 -7 -19 -7 -35 0 -24 -4 -28 -30 -28 -27 0 -30 -3
-30 -29 0 -26 -4 -30 -32 -33 -28 -2 -34 -8 -36 -31 -3 -25 -7 -28 -35 -25
-27 2 -33 8 -35 31 l-3 27 -95 0 -94 0 0 -28 c0 -23 -6 -30 -32 -37 l-33 -10
0 -155 0 -155 30 -5 c24 -4 31 -11 35 -35 l5 -30 92 -3 92 -3 3 33 c3 29 7 33
36 36 31 3 32 2 32 -32 0 -34 2 -36 35 -36 l34 0 3 -62 c3 -60 4 -63 31 -66
l27 -3 1 -177 c0 -97 0 -223 -1 -279 -2 -128 2 -143 41 -143 l29 0 0 -65 0
-65 35 0 c32 0 35 -2 35 -30 0 -33 -10 -38 -90 -42 l-45 -3 2 -535 c1 -294 2
-781 3 -1082 l0 -548 59 0 c61 0 71 -7 71 -51 0 -15 -7 -19 -35 -19 -33 0 -35
-2 -35 -35 0 -32 -2 -35 -30 -35 l-30 0 0 -395 0 -395 30 0 30 0 0 -65 0 -65
35 0 35 0 0 65 0 65 -35 0 -35 0 0 395 0 395 35 0 c33 0 35 2 35 35 0 33 2 35
36 35 34 0 35 1 32 33 -3 28 -7 32 -35 35 -29 3 -33 7 -33 33 0 27 -3 29 -35
29 l-35 0 0 1019 0 1020 33 3 c28 3 32 7 35 35 3 28 7 32 35 35 28 3 32 7 32
33 0 27 -4 30 -33 33 l-32 3 0 64 c0 66 -6 75 -51 75 -18 0 -19 11 -19 290 l0
290 265 0 265 0 0 35 0 35 1450 0 1450 0 0 -35 0 -35 261 -2 261 -3 5 -192 5
-193 -36 0 -37 0 3 -67 3 -68 30 0 30 0 3 68 c3 67 3 67 32 67 l30 0 2 197 3
198 30 5 c29 5 30 7 33 67 3 62 3 62 35 65 28 3 32 7 35 36 3 31 6 33 35 30
28 -3 32 -7 35 -36 l3 -33 92 3 92 3 3 33 c3 28 7 32 31 32 20 0 30 6 34 19 7
30 9 265 1 284 -4 10 -17 17 -34 17 -25 0 -29 4 -32 33 l-3 32 -92 3 -93 3 0
-29 c0 -36 -3 -39 -39 -34 -23 3 -31 10 -33 31 -2 21 -9 27 -35 29 -29 3 -33
7 -33 33 0 21 -5 29 -17 29 -28 0 -46 16 -47 41 l-1 24 -295 0 -295 0 -4 -25
c-1 -14 -8 -28 -15 -32 -18 -12 -2854 -10 -2877 2 -11 6 -19 21 -19 35 l0 25
-288 0 c-159 0 -292 -3 -295 -7z m593 -93 l0 -30 1450 0 1450 0 0 30 0 30 301
0 c280 0 300 -1 298 -17 -3 -36 2 -43 31 -43 l30 0 0 -230 0 -230 -35 0 c-33
0 -35 -2 -35 -35 l0 -35 -242 0 c-134 0 -267 3 -296 7 -50 6 -53 7 -50 32 l3
26 -1455 0 -1455 0 0 -30 0 -30 -290 -2 -290 -2 -5 32 c-4 28 -10 32 -37 35
l-33 3 0 230 0 229 30 0 c27 0 30 3 30 30 l0 30 300 0 300 0 0 -30z"/>
<path d="M4280 7315 c0 -33 -2 -35 -35 -35 l-35 0 0 -128 c0 -71 2 -131 5
-134 3 -2 18 -3 35 0 l30 4 0 129 0 129 130 0 130 0 0 -135 0 -135 -30 0 c-28
0 -30 3 -30 35 0 33 -2 35 -35 35 -33 0 -35 -2 -35 -35 l0 -35 -65 0 -65 0 0
-30 0 -30 130 0 130 0 0 -35 0 -35 -165 0 -165 0 0 -30 0 -30 1191 0 1190 0
-3 30 -3 31 -987 -1 -988 0 0 35 c0 33 -2 35 -36 35 -34 0 -35 1 -32 32 3 29
7 32 33 33 l30 0 3 133 3 132 -36 0 c-33 0 -35 2 -35 35 l0 35 -130 0 -130 0
0 -35z"/>
<path d="M4747 7343 c-4 -3 -7 -80 -7 -170 l0 -163 35 0 35 0 -2 167 -3 166
-26 4 c-14 2 -29 0 -32 -4z"/>
<path d="M5005 7342 c-3 -3 -5 -79 -5 -168 l0 -163 -97 -3 c-97 -3 -98 -3 -98
-28 0 -25 1 -25 98 -28 l97 -3 0 31 c0 28 3 30 35 30 l35 0 0 165 c0 91 -3
166 -7 166 -29 5 -53 5 -58 1z"/>
<path d="M5140 7150 l0 -200 130 0 130 0 0 30 0 29 -97 3 -98 3 -3 68 -3 67
66 0 65 0 0 35 0 35 -65 0 -65 0 0 30 0 30 100 0 100 0 0 35 0 35 -130 0 -130
0 0 -200z"/>
<path d="M5537 7343 c-4 -3 -7 -19 -7 -35 0 -24 -4 -28 -30 -28 l-30 0 0 -65
0 -65 130 0 130 0 0 -70 0 -70 -130 0 -130 0 0 -30 0 -30 130 0 130 0 0 30 c0
27 3 30 30 30 l30 0 0 70 0 70 -30 0 c-28 0 -30 3 -30 35 l0 35 -100 0 -100 0
0 30 0 30 130 0 130 0 0 29 c0 17 -6 31 -16 35 -21 8 -229 8 -237 -1z"/>
<path d="M5866 7342 c-3 -3 -6 -18 -6 -34 0 -28 0 -28 65 -28 l65 0 0 -165 0
-165 35 0 35 0 0 165 0 165 65 0 65 0 0 35 0 36 -159 -2 c-88 0 -162 -3 -165
-7z"/>
<path d="M6327 7344 c-4 -4 -7 -20 -7 -36 0 -24 -4 -28 -30 -28 l-30 0 0 -65
0 -65 130 0 130 0 0 -70 0 -70 -130 0 -130 0 0 -30 0 -30 129 0 130 0 3 33 c3
28 7 32 33 32 l30 1 3 67 3 67 -36 0 c-33 0 -35 2 -35 35 l0 35 -100 0 -100 0
0 30 0 30 136 0 135 0 -3 33 -3 32 -126 3 c-69 1 -128 -1 -132 -4z"/>
<path d="M7380 6650 l0 -360 -35 0 c-33 0 -35 -2 -35 -35 l0 -35 65 0 65 0 0
395 0 395 -30 0 -30 0 0 -360z"/>
<path d="M4080 6850 c0 -28 3 -30 35 -30 32 0 35 2 35 30 0 28 -3 30 -35 30
-32 0 -35 -2 -35 -30z"/>
<path d="M6650 6850 c0 -28 3 -30 35 -30 32 0 35 2 35 30 0 28 -3 30 -35 30
-32 0 -35 -2 -35 -30z"/>
<path d="M4147 6683 c-4 -3 -7 -19 -7 -35 0 -24 -4 -28 -30 -28 -27 0 -30 -3
-30 -29 0 -26 -4 -30 -32 -33 -29 -3 -33 -7 -36 -35 -3 -29 -7 -33 -32 -33
-25 0 -29 -4 -32 -32 l-3 -33 -67 -3 -68 -3 0 -94 0 -94 -27 -3 c-27 -3 -28
-5 -31 -70 l-3 -68 66 0 65 0 0 36 0 35 98 -2 97 -2 3 67 3 66 -35 0 c-32 0
-35 2 -33 28 2 24 -2 27 -30 30 -30 3 -33 6 -33 38 0 31 2 34 30 34 28 0 30 3
30 35 0 33 2 35 35 35 32 0 35 3 35 29 0 29 14 41 51 41 14 0 19 7 19 30 l0
30 63 0 62 0 -3 -65 c-4 -64 -4 -65 -33 -65 -26 0 -29 -3 -29 -35 0 -33 2 -35
35 -35 33 0 35 2 35 35 0 32 2 35 30 35 l30 0 0 100 0 100 -93 0 c-52 0 -97
-3 -100 -7z m-210 -351 c0 -10 -7 -19 -13 -19 -7 0 -13 3 -12 6 2 19 -4 22
-17 11 -12 -10 -15 -10 -15 2 0 8 12 15 29 16 24 2 29 -2 28 -16z m0 -38 c-3
-3 -12 -4 -19 -1 -8 3 -5 6 6 6 11 1 17 -2 13 -5z m70 -36 c-3 -8 -6 -5 -6 6
-1 11 2 17 5 13 3 -3 4 -12 1 -19z"/>
<path d="M4510 6600 c0 -11 -7 -20 -15 -20 -12 0 -15 -15 -15 -75 0 -66 3 -77
19 -83 11 -4 19 -11 18 -17 -1 -5 19 -11 46 -13 42 -3 47 -1 47 17 0 18 -6 21
-45 21 l-45 0 0 75 0 75 45 0 c38 0 45 3 45 20 0 17 -7 20 -50 20 -43 0 -50
-3 -50 -20z"/>
<path d="M5420 6555 l0 -65 55 0 c54 0 55 0 55 -30 0 -30 -1 -30 -55 -30 -48
0 -55 -2 -55 -20 0 -18 7 -20 55 -20 42 0 55 3 55 15 0 8 9 15 20 15 16 0 20
7 20 35 0 28 -4 35 -20 35 -13 0 -20 7 -20 20 0 16 -7 20 -36 20 -31 0 -35 3
-32 23 3 19 10 22 51 25 39 3 47 6 47 23 0 17 -7 19 -70 19 l-70 0 0 -65z"/>
<path d="M5690 6505 c0 -108 1 -115 20 -115 19 0 20 7 20 115 0 108 -1 115
-20 115 -19 0 -20 -7 -20 -115z"/>
<path d="M5950 6505 l0 -115 55 0 c40 0 55 4 55 14 0 7 9 16 20 19 16 4 20 14
20 51 0 39 -3 46 -20 46 -11 0 -20 6 -20 14 0 9 -12 16 -32 18 -29 3 -33 7
-36 36 -2 24 -8 32 -23 32 -18 0 -19 -8 -19 -115z m110 -30 c0 -45 0 -45 -35
-45 -35 0 -35 0 -35 45 0 45 0 45 35 45 35 0 35 0 35 -45z"/>
<path d="M4870 6540 c0 -13 -7 -20 -20 -20 -17 0 -20 -7 -20 -46 0 -37 4 -47
20 -51 11 -3 20 -12 20 -19 0 -8 7 -14 15 -14 8 0 15 -7 15 -15 0 -8 -7 -15
-15 -15 -8 0 -15 -9 -15 -20 0 -13 7 -20 20 -20 11 0 20 7 20 15 0 8 7 15 15
15 11 0 15 11 15 40 0 39 -1 40 -35 40 -35 0 -35 0 -35 45 0 45 0 45 36 45 28
0 35 4 32 17 -2 12 -14 18 -36 20 -26 2 -32 -1 -32 -17z"/>
<path d="M5017 6553 c-17 -17 -4 -32 30 -35 52 -4 56 -28 4 -28 -30 0 -41 -4
-41 -15 0 -8 -7 -15 -15 -15 -8 0 -15 -7 -15 -15 0 -8 7 -15 15 -15 8 0 15 -9
15 -20 0 -18 7 -20 60 -20 l60 0 0 64 c0 55 -3 64 -20 69 -11 3 -20 12 -20 21
0 11 -10 16 -33 16 -19 0 -37 -3 -40 -7z m73 -113 c0 -5 -16 -10 -35 -10 -19
0 -35 5 -35 10 0 6 16 10 35 10 19 0 35 -4 35 -10z"/>
<path d="M5168 6553 c-2 -4 -4 -42 -4 -83 1 -63 4 -75 19 -78 14 -3 17 4 17
43 0 38 4 48 20 52 11 3 20 12 20 19 0 8 9 14 21 14 14 0 19 5 17 17 -5 27
-38 29 -45 3 -6 -23 -28 -22 -28 1 0 15 -31 25 -37 12z"/>
<path d="M5803 6540 c-3 -11 -12 -20 -19 -20 -10 0 -14 -14 -14 -50 0 -38 4
-50 15 -50 8 0 15 -7 15 -15 0 -11 11 -15 40 -15 27 0 40 4 40 14 0 7 10 16
21 19 17 5 20 11 15 29 -3 13 -6 33 -6 46 0 13 -6 22 -15 22 -8 0 -15 9 -15
20 0 16 -7 20 -36 20 -27 0 -37 -5 -41 -20z m67 -55 c0 -19 1 -38 3 -42 1 -5
-13 -9 -30 -11 -33 -3 -33 -3 -33 42 0 44 1 46 30 46 28 0 30 -3 30 -35z"/>
<path d="M6170 6544 c0 -9 -9 -18 -19 -21 -16 -4 -19 -13 -17 -51 2 -35 7 -48
19 -50 9 -2 17 -10 17 -18 0 -10 12 -14 40 -14 29 0 40 4 40 15 0 8 7 15 15
15 11 0 15 12 15 50 0 36 -4 50 -14 50 -7 0 -16 9 -19 20 -7 26 -77 30 -77 4z
m70 -69 c0 -45 0 -45 -35 -45 -35 0 -35 0 -35 45 0 45 0 45 35 45 35 0 35 0
35 -45z"/>
<path d="M6343 6536 c-26 -28 -30 -46 -8 -46 8 0 15 -9 15 -20 0 -16 7 -20 35
-20 19 0 35 -4 35 -10 0 -5 -22 -10 -50 -10 -44 0 -50 -3 -50 -21 0 -18 5 -20
53 -17 35 2 51 7 50 16 -2 6 6 12 17 12 13 0 20 7 20 20 0 11 -7 20 -15 20 -8
0 -15 7 -15 15 0 10 -11 15 -35 15 -24 0 -35 5 -35 15 0 11 12 15 45 15 37 0
45 3 45 18 0 30 -78 29 -107 -2z"/>
<path d="M4680 6535 c0 -10 11 -15 35 -15 24 0 35 -5 35 -15 0 -10 -10 -15
-30 -15 -28 0 -70 -29 -70 -49 0 -5 7 -11 15 -15 8 -3 15 -12 15 -21 0 -12 13
-15 60 -15 l60 0 0 65 c0 58 -2 65 -20 65 -11 0 -20 7 -20 15 0 11 -11 15 -40
15 -29 0 -40 -4 -40 -15z m80 -95 c0 -5 -16 -10 -35 -10 -19 0 -35 5 -35 10 0
6 16 10 35 10 19 0 35 -4 35 -10z"/>
<path d="M4158 6422 c-12 -2 -18 -13 -18 -33 0 -25 -4 -29 -29 -29 -24 0 -29
-5 -33 -30 -6 -37 -3 -40 39 -40 30 0 33 3 33 30 0 27 3 30 31 30 29 0 30 2
27 37 -3 36 -13 44 -50 35z"/>
<path d="M4480 6260 l0 -30 130 0 130 0 0 30 0 30 -130 0 -130 0 0 -30z"/>
<path d="M4800 6260 l0 -30 100 0 100 0 0 30 0 30 -100 0 -100 0 0 -30z"/>
<path d="M5070 6261 c0 -29 3 -31 36 -31 33 0 35 2 32 28 -2 22 -8 28 -35 30
-31 3 -33 1 -33 -27z"/>
<path d="M5200 6260 l0 -30 70 0 c67 0 70 1 66 23 -3 12 -5 25 -5 30 -1 4 -30
7 -66 7 l-65 0 0 -30z"/>
<path d="M5400 6260 l0 -30 130 0 130 0 0 30 0 30 -130 0 -130 0 0 -30z"/>
<path d="M5730 6260 l0 -30 130 0 130 0 0 30 0 30 -130 0 -130 0 0 -30z"/>
<path d="M6060 6254 c0 -34 1 -35 33 -31 31 3 36 12 28 60 0 4 -14 7 -31 7
-28 0 -30 -3 -30 -36z"/>
<path d="M6190 6260 l0 -30 100 0 100 0 0 30 0 30 -100 0 -100 0 0 -30z"/>
<path d="M6452 6258 c3 -29 6 -33 33 -33 27 0 30 4 33 33 3 31 2 32 -33 32
-35 0 -36 -1 -33 -32z"/>
<path d="M6590 6254 l0 -36 53 6 c28 3 87 6 130 6 l77 0 0 30 0 30 -130 0
-130 0 0 -36z"/>
<path d="M7418 6203 c7 -3 16 -2 19 1 4 3 -2 6 -13 5 -11 0 -14 -3 -6 -6z"/>
<path d="M4480 6125 l0 -35 130 0 130 0 0 35 0 35 -130 0 -130 0 0 -35z"/>
<path d="M4810 6125 c0 -32 2 -35 30 -35 28 0 30 3 30 35 0 32 -2 35 -30 35
-28 0 -30 -3 -30 -35z"/>
<path d="M4940 6125 l0 -35 130 0 130 0 0 35 0 35 -130 0 -130 0 0 -35z"/>
<path d="M5270 6125 l0 -35 93 0 c52 0 96 2 99 5 2 3 3 18 0 35 l-4 30 -94 0
-94 0 0 -35z"/>
<path d="M5530 6125 l0 -36 133 3 132 3 0 30 0 30 -132 3 -133 3 0 -36z"/>
<path d="M5860 6126 c0 -35 1 -36 36 -36 34 0 35 1 32 33 -3 28 -7 32 -35 35
-32 3 -33 2 -33 -32z"/>
<path d="M5990 6125 c0 -33 2 -35 35 -35 33 0 35 2 35 35 0 33 -2 35 -35 35
-33 0 -35 -2 -35 -35z"/>
<path d="M7244 6146 c-3 -8 -4 -23 -2 -33 3 -15 15 -19 71 -21 l67 -3 0 -1084
0 -1085 -35 0 c-33 0 -35 -2 -35 -34 0 -32 -3 -35 -32 -38 -29 -3 -33 -6 -33
-33 0 -27 4 -30 33 -33 28 -3 32 -7 32 -33 0 -27 3 -29 35 -29 32 0 35 2 35
30 0 25 -4 30 -35 36 -30 5 -35 10 -35 34 0 25 4 29 33 32 28 3 32 7 35 36 3
28 7 32 33 32 l29 0 0 1085 0 1085 -30 0 c-28 0 -30 3 -30 35 l0 35 -65 0
c-48 0 -67 -4 -71 -14z"/>
<path d="M3945 5860 c2 -28 0 -30 -31 -30 -32 0 -34 -2 -34 -34 0 -32 3 -35
32 -38 27 -2 33 -7 33 -28 0 -21 -6 -26 -33 -28 -32 -3 -33 -5 -30 -40 l3 -37
98 3 97 4 0 -101 0 -102 -66 3 -66 3 -2 42 c-3 50 -20 73 -52 71 -17 -2 -24
-8 -24 -24 0 -16 -6 -21 -25 -21 -21 0 -25 4 -25 28 0 26 4 29 30 29 28 0 30
3 30 35 0 33 -2 35 -35 35 -32 0 -35 -2 -35 -30 0 -27 -3 -30 -30 -30 l-30 0
0 -70 0 -70 30 0 30 0 0 -65 0 -65 200 0 200 0 0 29 c0 26 4 30 33 33 l32 3 3
103 3 102 -36 0 c-32 0 -35 2 -35 30 0 27 -3 30 -30 30 l-30 0 0 65 0 65 30 0
c28 0 30 3 30 35 0 32 -2 35 -30 35 -27 0 -30 3 -30 30 l0 30 -104 0 -104 0 3
-30z m101 -100 c31 0 34 -2 34 -30 0 -28 -3 -30 -35 -30 -32 0 -35 2 -35 31 0
22 -5 32 -19 36 -11 3 -17 11 -15 18 3 7 -1 17 -8 21 -9 6 -6 10 12 14 22 5
25 3 28 -27 3 -30 6 -33 38 -33z"/>
<path d="M4860 5835 c0 -23 -5 -35 -14 -35 -23 0 -29 -31 -6 -37 16 -4 20 -14
20 -49 0 -31 4 -44 14 -44 7 0 16 -9 19 -20 3 -12 14 -20 26 -20 14 0 21 6 21
20 0 13 -7 20 -20 20 -17 0 -20 7 -20 44 0 35 4 45 20 49 23 6 17 37 -6 37 -9
0 -14 12 -14 35 0 28 -4 35 -20 35 -16 0 -20 -7 -20 -35z"/>
<path d="M6650 5835 c0 -24 -5 -35 -15 -35 -8 0 -15 -9 -15 -20 0 -11 7 -20
15 -20 11 0 15 -12 15 -45 0 -32 4 -45 14 -45 7 0 16 -9 19 -20 7 -27 47 -27
47 -1 0 11 -8 21 -17 23 -12 2 -18 15 -20 46 -2 36 1 42 17 42 27 0 26 36 -1
43 -11 3 -19 11 -18 19 4 33 -2 48 -21 48 -16 0 -20 -7 -20 -35z"/>
<path d="M4480 5745 l0 -115 65 0 c63 0 65 1 65 25 0 23 -4 25 -45 25 -43 0
-45 1 -45 29 0 27 3 30 37 33 27 2 39 8 41 21 3 14 -4 17 -37 17 -34 0 -41 3
-41 20 0 17 7 20 45 20 38 0 45 3 45 20 0 18 -7 20 -65 20 l-65 0 0 -115z"/>
<path d="M4652 5718 c2 -66 6 -83 18 -83 11 0 16 15 18 63 l3 63 32 -3 c31 -3
31 -3 32 -63 1 -52 4 -60 21 -60 16 0 19 9 22 63 3 57 1 64 -18 69 -11 3 -20
12 -20 19 0 10 -15 14 -55 14 l-56 0 3 -82z"/>
<path d="M4974 5787 c-3 -8 -4 -45 -2 -83 3 -61 5 -69 23 -69 17 0 20 8 23 53
2 37 7 52 18 52 7 0 14 5 14 10 0 6 9 10 20 10 13 0 20 7 20 20 0 13 -7 20
-20 20 -13 0 -20 -7 -20 -20 0 -11 -7 -20 -15 -20 -8 0 -15 9 -15 20 0 23 -37
28 -46 7z"/>
<path d="M5160 5785 c0 -8 -7 -15 -15 -15 -11 0 -15 -12 -15 -50 0 -38 4 -50
15 -50 8 0 15 -9 15 -21 0 -18 5 -20 48 -17 39 3 47 6 47 23 0 16 -8 21 -42
23 -47 3 -60 22 -15 22 40 0 82 22 82 43 0 9 -7 17 -15 17 -8 0 -15 9 -15 20
0 17 -7 20 -45 20 -33 0 -45 -4 -45 -15z m80 -34 c0 -13 -25 -20 -49 -14 -33
9 -24 23 14 23 19 0 35 -4 35 -9z"/>
<path d="M5340 5785 c0 -9 -7 -18 -15 -21 -10 -4 -15 -20 -15 -50 0 -32 4 -44
15 -44 8 0 15 -7 15 -15 0 -11 11 -15 41 -15 33 0 40 -3 37 -17 -2 -13 -14
-19 -41 -21 -29 -3 -37 -7 -37 -23 0 -16 7 -19 40 -19 27 0 43 5 46 15 4 8 12
15 20 15 11 0 14 22 14 105 l0 105 -60 0 c-47 0 -60 -3 -60 -15z m80 -65 c0
-39 -1 -40 -35 -40 -34 0 -35 1 -35 40 0 39 1 40 35 40 34 0 35 -1 35 -40z"/>
<path d="M5522 5783 c2 -13 14 -19 41 -21 49 -4 47 -18 -3 -26 -26 -4 -40 -11
-40 -21 0 -8 -7 -15 -15 -15 -8 0 -15 -7 -15 -15 0 -8 6 -15 14 -15 7 0 16 -9
19 -20 4 -17 14 -20 61 -20 l56 0 0 70 c0 56 -3 70 -15 70 -8 0 -15 7 -15 15
0 11 -12 15 -46 15 -38 0 -45 -3 -42 -17z m78 -98 c0 -10 -11 -15 -35 -15 -24
0 -35 5 -35 15 0 10 11 15 35 15 24 0 35 -5 35 -15z"/>
<path d="M5672 5718 c3 -75 5 -83 23 -83 17 0 20 8 23 48 2 33 7 47 18 47 7 0
14 6 14 14 0 8 10 16 23 18 12 2 22 10 22 18 0 8 -10 16 -22 18 -16 2 -23 -2
-23 -12 0 -9 -7 -16 -15 -16 -8 0 -15 7 -15 15 0 9 -9 15 -25 15 -26 0 -26 0
-23 -82z"/>
<path d="M5927 5793 c-3 -5 -4 -57 -4 -118 2 -106 3 -110 25 -113 20 -3 22 1
22 36 0 25 5 40 13 39 38 -1 57 5 57 18 0 8 7 15 16 15 12 0 14 10 12 48 -2
33 -7 46 -16 44 -8 -1 -16 7 -19 18 -4 17 -14 20 -54 20 -26 0 -50 -3 -52 -7z
m103 -73 c0 -38 -2 -40 -30 -40 -28 0 -30 2 -30 40 0 38 2 40 30 40 28 0 30
-2 30 -40z"/>
<path d="M6140 5780 c0 -16 7 -20 35 -20 19 0 35 -4 35 -9 0 -5 -16 -12 -35
-15 -19 -4 -35 -11 -35 -16 0 -6 -7 -10 -15 -10 -20 0 -19 -36 0 -44 8 -3 14
-11 13 -18 -2 -9 14 -14 55 -16 l57 -3 0 71 c0 48 -3 69 -11 65 -6 -4 -13 2
-16 14 -4 17 -13 21 -44 21 -32 0 -39 -3 -39 -20z m73 -95 c-4 -15 -66 -12
-71 3 -3 10 6 13 34 10 22 -2 38 -7 37 -13z"/>
<path d="M6320 5785 c0 -8 -7 -15 -15 -15 -11 0 -15 -12 -15 -50 0 -38 4 -50
15 -50 8 0 15 -9 15 -20 0 -17 7 -20 40 -20 33 0 40 3 40 20 0 16 -7 20 -35
20 -35 0 -35 0 -35 45 0 45 0 45 35 45 28 0 35 4 35 20 0 17 -7 20 -40 20 -29
0 -40 -4 -40 -15z"/>
<path d="M6470 5785 c0 -9 -7 -18 -15 -21 -20 -8 -21 -94 -1 -94 7 0 16 -9 19
-20 4 -15 14 -20 42 -20 28 0 38 5 42 20 3 11 12 20 19 20 10 0 14 14 14 50 0
38 -4 50 -15 50 -8 0 -15 7 -15 15 0 11 -12 15 -45 15 -34 0 -45 -4 -45 -15z
m78 -67 c-3 -40 -5 -43 -33 -43 -28 0 -30 3 -33 43 l-3 42 36 0 36 0 -3 -42z"/>
<path d="M6800 5785 c0 -9 -7 -18 -15 -21 -10 -4 -15 -20 -15 -49 0 -29 5 -45
15 -49 8 -3 15 -13 15 -21 0 -13 9 -15 43 -13 34 2 42 7 42 23 0 16 -8 21 -37
23 -44 4 -52 22 -10 22 61 0 111 50 67 66 -8 4 -15 12 -15 20 0 10 -13 14 -45
14 -34 0 -45 -4 -45 -15z m80 -35 c0 -5 -16 -10 -35 -10 -19 0 -35 5 -35 10 0
6 16 10 35 10 19 0 35 -4 35 -10z"/>
<path d="M6980 5779 c0 -15 -5 -19 -15 -15 -10 4 -15 -1 -15 -14 0 -11 7 -20
15 -20 8 0 15 -7 15 -15 0 -11 11 -15 40 -15 59 0 49 -18 -12 -22 -46 -3 -53
-6 -56 -25 -3 -22 0 -23 52 -23 49 0 56 2 56 20 0 11 6 20 14 20 23 0 29 31 6
37 -11 3 -20 12 -20 19 0 9 -12 14 -35 14 -19 0 -35 5 -35 10 0 6 23 10 50 10
43 0 50 3 50 20 0 18 -7 20 -55 20 -49 0 -55 -2 -55 -21z"/>
<path d="M3895 5600 c3 -5 0 -20 -6 -32 -11 -20 -10 -21 3 -11 8 7 17 10 20 7
3 -2 8 2 12 11 3 9 2 13 -4 10 -6 -3 -10 1 -10 9 0 9 -5 16 -11 16 -5 0 -7 -4
-4 -10z"/>
<path d="M4480 5465 l0 -35 130 0 130 0 0 35 0 35 -130 0 -130 0 0 -35z"/>
<path d="M4807 5493 c-3 -5 -4 -19 -3 -33 1 -25 2 -25 99 -28 l97 -3 0 36 0
35 -94 0 c-52 0 -97 -3 -99 -7z"/>
<path d="M5070 5465 l0 -35 65 0 65 0 0 35 0 35 -65 0 -65 0 0 -35z"/>
<path d="M5270 5465 l0 -35 65 0 65 0 0 35 0 35 -65 0 -65 0 0 -35z"/>
<path d="M5470 5465 c0 -32 2 -35 30 -35 28 0 30 3 30 35 0 32 -2 35 -30 35
-28 0 -30 -3 -30 -35z"/>
<path d="M5600 5465 l0 -36 63 3 c62 3 62 3 65 36 l3 32 -65 0 -66 0 0 -35z"/>
<path d="M5794 5486 c-12 -31 1 -51 34 -54 31 -3 32 -2 32 32 0 33 -2 36 -30
36 -17 0 -33 -6 -36 -14z"/>
<path d="M5930 5465 c0 -32 2 -35 30 -35 28 0 30 3 30 35 0 32 -2 35 -30 35
-28 0 -30 -3 -30 -35z"/>
<path d="M6062 5468 l3 -33 225 0 225 0 3 33 3 32 -231 0 -231 0 3 -32z"/>
<path d="M4487 5364 c-4 -4 -7 -20 -7 -36 l0 -28 131 0 130 0 -3 33 -3 32
-121 3 c-66 1 -123 -1 -127 -4z"/>
<path d="M4808 5359 c-5 -4 -8 -17 -6 -30 2 -19 10 -25 36 -27 31 -3 32 -2 32
31 0 31 -3 35 -26 33 -14 0 -30 -4 -36 -7z"/>
<path d="M4940 5335 l0 -35 65 0 65 0 0 35 0 35 -65 0 -65 0 0 -35z"/>
<path d="M5140 5335 l0 -35 160 0 160 0 0 34 0 34 -160 1 -160 2 0 -36z"/>
<path d="M5536 5362 c-3 -3 -6 -18 -6 -34 l0 -28 130 0 130 0 0 30 c0 17 -3
30 -7 30 -5 0 -61 2 -125 4 -64 2 -119 1 -122 -2z"/>
<path d="M5873 5363 c-7 -3 -13 -18 -13 -34 0 -27 3 -29 36 -29 34 0 35 1 32
33 -3 32 -21 41 -55 30z"/>
<path d="M6003 5363 c-7 -2 -13 -18 -13 -34 l0 -29 64 0 c63 0 64 0 68 30 3
17 2 32 0 35 -7 6 -103 5 -119 -2z"/>
<path d="M6197 5364 c-4 -4 -7 -20 -7 -36 0 -27 3 -29 33 -26 28 3 32 6 32 33
0 25 -5 31 -25 33 -14 2 -29 0 -33 -4z"/>
<path d="M6330 5360 c-6 -4 -10 -18 -8 -31 2 -19 10 -25 36 -27 30 -3 32 -1
32 27 0 17 -3 31 -7 32 -5 0 -15 2 -24 4 -9 1 -22 -1 -29 -5z"/>
<path d="M6460 5333 l0 -33 95 0 95 0 0 36 0 35 -95 -3 -95 -3 0 -32z"/>
<path d="M4078 5138 c-3 -29 -7 -33 -35 -36 l-33 -3 0 -95 0 -94 -30 0 c-28 0
-30 -3 -30 -35 0 -33 -2 -35 -35 -35 -33 0 -35 -2 -35 -35 0 -33 -2 -35 -35
-35 -32 0 -35 -2 -35 -30 0 -27 -3 -30 -30 -30 -28 0 -30 -3 -30 -35 0 -32 2
-35 29 -35 26 0 30 -4 33 -32 3 -29 7 -33 36 -36 30 -3 32 -1 32 27 0 28 3 31
29 31 25 0 30 -4 33 -27 2 -23 8 -29 35 -31 29 -3 32 -1 35 30 3 29 7 33 36
36 29 3 32 6 32 38 0 32 -2 34 -34 34 -21 0 -34 5 -33 13 1 40 -4 47 -33 47
-28 0 -30 3 -30 35 0 32 2 35 30 35 28 0 30 -3 30 -35 0 -33 2 -35 35 -35 33
0 35 2 35 35 l0 35 100 0 100 0 0 30 c0 27 3 30 30 30 l30 0 0 70 0 70 -29 0
c-26 0 -30 4 -33 32 -3 29 -7 32 -33 33 -26 0 -30 4 -33 33 l-3 32 -64 0 -64
0 -3 -32z m132 -67 c0 -26 -4 -30 -32 -33 -29 -3 -33 -7 -36 -35 -3 -32 -2
-33 32 -33 33 0 36 2 36 30 0 28 3 30 36 30 l35 0 -2 -60 -2 -60 -99 0 -98 0
0 95 0 95 65 0 65 0 0 -29z m-130 -201 c0 -27 -3 -30 -30 -30 -27 0 -30 3 -30
30 0 27 3 30 30 30 27 0 30 -3 30 -30z m-130 -130 c0 -28 -3 -30 -35 -30 -32
0 -35 2 -35 30 0 28 3 30 35 30 32 0 35 -2 35 -30z m-70 -70 c0 -27 -3 -30
-30 -30 -27 0 -30 3 -30 30 0 27 3 30 30 30 27 0 30 -3 30 -30z m130 0 c0 -27
-3 -30 -30 -30 -27 0 -30 3 -30 30 0 27 3 30 30 30 27 0 30 -3 30 -30z"/>
<path d="M4480 4985 l0 -115 65 0 c58 0 65 2 65 20 0 17 -7 20 -45 20 -45 0
-45 0 -45 35 0 34 1 35 41 35 33 0 40 3 37 18 -2 12 -14 18 -41 20 -29 3 -37
7 -37 23 0 16 7 19 45 19 38 0 45 3 45 20 0 18 -7 20 -65 20 l-65 0 0 -115z"/>
<path d="M5380 5071 c0 -20 -6 -30 -20 -34 -11 -3 -20 -10 -20 -17 0 -7 9 -14
20 -17 17 -4 20 -14 20 -54 0 -37 4 -49 15 -49 8 0 15 -7 15 -15 0 -9 9 -15
25 -15 18 0 25 5 25 20 0 13 -7 20 -20 20 -17 0 -20 7 -20 45 0 32 4 45 14 45
17 0 30 30 13 31 -7 1 -15 1 -19 0 -5 0 -8 15 -8 34 0 28 -4 35 -20 35 -15 0
-20 -7 -20 -29z"/>
<path d="M6350 4985 c0 -108 1 -115 20 -115 17 0 20 7 20 50 0 28 5 50 10 50
6 0 10 -7 10 -15 0 -8 7 -15 15 -15 8 0 15 -7 15 -15 0 -8 5 -15 10 -15 6 0
10 -9 10 -20 0 -13 7 -20 20 -20 15 0 20 7 20 25 0 14 -4 25 -10 25 -5 0 -10
4 -10 10 0 15 -33 50 -47 50 -7 0 -13 7 -13 15 0 8 5 15 10 15 6 0 21 11 34
25 13 14 29 25 35 25 7 0 11 8 9 18 -4 21 -48 30 -48 9 0 -8 -7 -17 -15 -21
-8 -3 -15 -12 -15 -21 0 -8 -9 -15 -20 -15 -16 0 -20 7 -20 35 0 28 -4 35 -20
35 -19 0 -20 -7 -20 -115z"/>
<path d="M4693 5033 l-43 -4 0 -80 c0 -72 2 -79 20 -79 18 0 20 7 20 65 l0 65
30 0 30 0 0 -65 c0 -63 1 -65 25 -65 24 0 25 2 25 64 0 56 -2 64 -21 69 -12 3
-18 10 -15 15 5 8 -21 27 -27 20 -1 -1 -21 -3 -44 -5z"/>
<path d="M5020 5024 c0 -9 -9 -18 -20 -21 -16 -4 -20 -14 -20 -49 0 -30 5 -46
15 -50 8 -4 15 -12 15 -20 0 -10 12 -14 40 -14 29 0 40 4 40 15 0 8 9 15 20
15 17 0 20 7 20 49 0 40 -3 50 -20 54 -11 3 -20 12 -20 21 0 12 -10 16 -35 16
-25 0 -35 -4 -35 -16z m70 -69 c0 -45 0 -45 -35 -45 -35 0 -35 0 -35 45 0 45
0 45 35 45 35 0 35 0 35 -45z"/>
<path d="M5561 5018 c-8 -20 -10 -21 -16 -5 -4 9 -18 17 -31 17 -23 0 -24 -2
-24 -80 0 -79 0 -80 25 -80 23 0 25 4 25 45 0 47 25 85 56 85 21 0 14 34 -9
38 -11 2 -20 -5 -26 -20z"/>
<path d="M5677 5033 c-19 -19 -5 -33 33 -33 29 0 40 -4 40 -15 0 -11 -11 -15
-40 -15 -29 0 -40 -4 -40 -15 0 -8 -4 -15 -10 -15 -5 0 -10 -9 -10 -20 0 -11
5 -20 10 -20 6 0 10 -7 10 -15 0 -12 13 -15 60 -15 l60 0 0 64 c0 55 -3 64
-20 69 -11 3 -20 12 -20 21 0 11 -10 16 -33 16 -19 0 -37 -3 -40 -7z m73 -108
c0 -10 -11 -15 -35 -15 -24 0 -35 5 -35 15 0 10 11 15 35 15 24 0 35 -5 35
-15z"/>
<path d="M5828 5035 c-2 -2 -2 -40 0 -84 3 -72 6 -81 23 -81 16 0 19 7 19 50
0 38 4 50 15 50 8 0 15 7 15 15 0 9 9 15 21 15 14 0 19 5 17 17 -4 23 -38 30
-38 9 0 -18 -26 -22 -32 -4 -4 10 -33 20 -40 13z"/>
<path d="M6102 5018 c-2 -10 -11 -18 -19 -18 -11 0 -13 -11 -11 -47 2 -32 7
-47 16 -45 6 1 12 -7 12 -18 0 -17 7 -20 40 -20 27 0 40 4 40 14 0 7 9 16 20
19 16 4 20 14 20 51 0 39 -3 46 -20 46 -13 0 -20 7 -20 19 0 16 -6 19 -37 18
-25 -1 -37 -7 -41 -19z m78 -63 c0 -45 0 -45 -35 -45 -35 0 -35 0 -35 45 0 45
0 45 35 45 35 0 35 0 35 -45z"/>
<path d="M6563 5014 c-28 -31 -33 -114 -8 -114 8 0 15 -7 15 -15 0 -11 12 -15
45 -15 38 0 45 3 45 20 0 16 -7 20 -35 20 -24 0 -35 5 -35 15 0 11 12 15 50
15 48 0 50 1 50 29 0 20 -6 30 -20 34 -11 3 -20 12 -20 21 0 27 -61 20 -87
-10z m85 -31 c2 -9 -7 -13 -27 -13 -30 0 -46 11 -34 24 11 11 56 2 61 -11z"/>
<path d="M6733 5033 c-20 -7 -18 -123 2 -123 7 0 18 -6 22 -14 4 -8 22 -16 38
-18 45 -5 39 -32 -7 -36 -30 -3 -38 -7 -38 -23 0 -16 7 -19 45 -19 33 0 45 4
45 15 0 8 7 15 15 15 12 0 15 18 15 98 0 54 -3 101 -6 104 -3 3 -14 3 -25 1
-18 -5 -20 -13 -17 -62 l3 -56 -32 -3 -33 -3 0 60 c0 61 -5 72 -27 64z"/>
<path d="M4866 5015 c-3 -8 -12 -15 -21 -15 -11 0 -15 -12 -15 -50 0 -43 3
-50 20 -50 11 0 20 -7 20 -15 0 -11 11 -15 41 -15 33 0 40 3 37 18 -2 12 -14
18 -41 20 -37 3 -37 4 -37 48 l0 44 40 0 c29 0 40 4 40 15 0 11 -11 15 -39 15
-25 0 -41 -5 -45 -15z"/>
<path d="M5160 4950 c0 -79 0 -80 25 -80 24 0 25 2 25 65 l0 65 30 0 30 0 0
-65 c0 -58 2 -65 20 -65 18 0 20 7 20 65 0 58 -2 65 -20 65 -11 0 -20 7 -20
15 0 12 -13 15 -55 15 l-55 0 0 -80z"/>
<path d="M4480 4740 l0 -30 130 0 130 0 0 30 0 30 -130 0 -130 0 0 -30z"/>
<path d="M4807 4763 c-4 -3 -7 -16 -7 -29 0 -18 7 -23 35 -26 34 -4 35 -3 35
29 0 30 -3 33 -28 33 -16 0 -32 -3 -35 -7z"/>
<path d="M4940 4740 l0 -30 65 0 65 0 0 30 0 30 -65 0 -65 0 0 -30z"/>
<path d="M5138 4740 l-5 -30 69 0 69 0 -3 28 c-3 26 -6 27 -64 30 l-62 3 -4
-31z"/>
<path d="M5330 4740 l0 -30 165 0 165 0 0 30 0 30 -165 0 -165 0 0 -30z"/>
<path d="M5730 4740 l0 -30 100 0 100 0 0 30 0 30 -100 0 -100 0 0 -30z"/>
<path d="M5990 4740 l0 -30 68 0 69 0 -5 30 c-4 30 -5 30 -68 30 l-64 0 0 -30z"/>
<path d="M6190 4740 l0 -30 165 0 165 0 0 30 0 30 -165 0 -165 0 0 -30z"/>
<path d="M6590 4740 l0 -30 65 0 65 0 0 30 0 30 -65 0 -65 0 0 -30z"/>
<path d="M4480 4605 l0 -35 130 0 130 0 0 35 0 35 -130 0 -130 0 0 -35z"/>
<path d="M4804 4626 c-12 -31 1 -51 34 -54 31 -3 32 -2 32 32 0 33 -2 36 -30
36 -17 0 -33 -6 -36 -14z"/>
<path d="M4940 4605 l0 -35 163 2 162 3 3 33 3 32 -165 0 -166 0 0 -35z"/>
<path d="M5332 4608 c3 -29 7 -33 36 -36 31 -3 32 -2 32 32 0 35 -1 36 -36 36
-34 0 -35 -1 -32 -32z"/>
<path d="M5464 4626 c-3 -8 -4 -23 -2 -33 3 -16 17 -18 136 -21 l132 -3 0 36
0 35 -130 0 c-105 0 -132 -3 -136 -14z"/>
<path d="M5792 4608 c3 -29 7 -33 36 -36 31 -3 32 -2 32 32 0 35 -1 36 -36 36
-34 0 -35 -1 -32 -32z"/>
<path d="M5924 4626 c-3 -8 -4 -23 -2 -33 3 -16 15 -18 103 -18 l100 0 0 30 0
30 -98 3 c-79 2 -98 0 -103 -12z"/>
<path d="M3817 4374 c-4 -4 -7 -20 -7 -36 0 -24 -4 -28 -30 -28 l-30 0 0 -230
0 -230 295 0 295 0 0 230 0 230 -29 0 c-26 0 -30 4 -33 33 l-3 32 -97 3 -98 3
0 -36 c0 -34 -1 -35 -36 -35 -34 0 -35 1 -32 33 l3 32 -95 3 c-53 1 -99 0
-103 -4z m195 -96 c3 -29 7 -33 36 -36 31 -3 32 -2 32 32 l0 36 100 0 100 0
-2 -162 -3 -163 -97 -3 -98 -3 0 -29 c0 -28 -3 -30 -36 -30 -35 0 -36 1 -30
30 l6 30 -100 0 -100 0 0 165 0 165 94 0 95 0 3 -32z"/>
<path d="M4480 4185 l0 -115 65 0 c58 0 65 2 65 20 0 17 -7 20 -45 20 -45 0
-45 0 -45 35 0 34 1 35 41 35 33 0 40 3 37 18 -2 12 -14 18 -41 20 -29 3 -37
7 -37 23 0 16 7 19 45 19 38 0 45 3 45 20 0 18 -7 20 -65 20 l-65 0 0 -115z"/>
<path d="M5380 4270 c0 -23 -4 -30 -20 -30 -13 0 -20 -7 -20 -20 0 -13 7 -20
20 -20 17 0 20 -7 20 -45 0 -33 4 -45 15 -45 9 0 15 -9 15 -21 0 -15 5 -20 22
-17 30 4 37 38 9 38 -18 0 -21 6 -21 45 0 33 4 45 15 45 8 0 15 9 15 20 0 11
-7 20 -15 20 -10 0 -15 10 -15 30 0 23 -4 30 -20 30 -16 0 -20 -7 -20 -30z"/>
<path d="M6340 4280 c0 -15 7 -20 25 -20 24 0 24 -2 27 -92 3 -79 6 -93 21
-96 15 -3 17 6 17 92 0 96 0 96 25 96 18 0 25 5 25 20 0 18 -7 20 -70 20 -63
0 -70 -2 -70 -20z"/>
<path d="M4650 4154 c0 -76 2 -85 18 -82 14 3 18 16 20 66 3 61 3 62 32 62 29
0 29 -1 32 -62 3 -55 5 -63 23 -63 18 0 20 8 23 63 2 52 0 62 -13 62 -9 0 -19
9 -22 20 -5 17 -14 20 -59 20 l-54 0 0 -86z"/>
<path d="M4870 4220 c0 -13 -7 -20 -20 -20 -17 0 -20 -7 -20 -45 0 -38 3 -45
20 -45 13 0 20 -7 20 -20 0 -16 7 -20 35 -20 28 0 35 4 35 20 0 16 -7 20 -35
20 -35 0 -35 0 -35 45 0 45 0 45 35 45 28 0 35 4 35 20 0 16 -7 20 -35 20 -28
0 -35 -4 -35 -20z"/>
<path d="M5020 4224 c0 -9 -9 -18 -20 -21 -16 -4 -20 -14 -20 -49 0 -37 3 -44
20 -44 13 0 20 -7 20 -20 0 -16 7 -20 36 -20 27 0 37 5 41 20 3 11 12 20 19
20 10 0 14 13 14 45 0 32 -4 45 -14 45 -7 0 -16 9 -19 20 -7 26 -77 30 -77 4z
m70 -70 c0 -45 0 -45 -32 -42 -31 3 -33 6 -36 46 l-3 42 35 0 c36 0 36 0 36
-46z"/>
<path d="M5170 4154 c0 -76 2 -85 18 -82 14 3 18 16 20 66 3 61 3 62 32 62
l30 0 0 -65 c0 -58 2 -65 20 -65 18 0 20 7 20 65 0 51 -3 65 -15 65 -8 0 -15
9 -15 20 0 18 -7 20 -55 20 l-55 0 0 -86z"/>
<path d="M5492 4158 c3 -70 6 -83 21 -86 14 -3 17 4 17 48 0 43 3 53 20 57 11
3 20 9 20 14 0 5 9 9 20 9 13 0 20 7 20 20 0 25 -35 27 -49 3 -10 -17 -12 -17
-25 0 -7 9 -21 17 -30 17 -15 0 -16 -11 -14 -82z"/>
<path d="M5670 4220 c0 -17 7 -20 41 -20 49 0 50 -23 0 -28 -35 -4 -71 -29
-71 -49 0 -7 6 -13 14 -13 7 0 16 -9 19 -20 4 -17 14 -20 61 -20 l56 0 0 65
c0 53 -3 65 -16 65 -9 0 -18 9 -21 20 -4 16 -14 20 -44 20 -32 0 -39 -3 -39
-20z m74 -95 c-4 -9 -19 -15 -35 -15 -19 0 -29 5 -29 15 0 10 11 15 35 15 26
0 33 -3 29 -15z"/>
<path d="M5830 4155 c0 -78 2 -85 20 -85 17 0 20 7 20 50 0 38 4 50 15 50 8 0
15 7 15 15 0 8 9 15 20 15 13 0 20 7 20 20 0 13 -7 20 -20 20 -11 0 -20 -7
-20 -15 0 -8 -7 -15 -15 -15 -8 0 -15 7 -15 15 0 8 -9 15 -20 15 -18 0 -20 -7
-20 -85z"/>
<path d="M6104 4225 c-4 -8 -12 -15 -20 -15 -10 0 -14 -14 -14 -50 0 -36 4
-50 14 -50 7 0 16 -9 19 -20 4 -15 14 -20 41 -20 29 0 36 4 36 20 0 14 7 20
21 20 18 0 20 5 17 48 -2 33 -7 46 -16 44 -8 -1 -16 7 -19 18 -4 15 -14 20
-39 20 -22 0 -37 -6 -40 -15z m74 -67 c-3 -40 -5 -43 -35 -46 -33 -3 -33 -3
-33 42 0 46 0 46 36 46 l35 0 -3 -42z"/>
<path d="M6550 4220 c0 -11 -7 -20 -15 -20 -11 0 -15 -12 -15 -45 0 -32 4 -45
14 -45 7 0 16 -9 19 -20 4 -15 14 -20 41 -20 29 0 36 4 36 20 0 14 7 20 21 20
18 0 20 5 17 48 -2 33 -7 46 -16 44 -8 -1 -16 7 -19 18 -4 16 -14 20 -44 20
-32 0 -39 -3 -39 -20z m70 -65 c0 -43 -1 -45 -30 -45 -29 0 -30 2 -30 45 0 43
1 45 30 45 29 0 30 -2 30 -45z"/>
<path d="M6700 4155 c0 -78 2 -85 20 -85 16 0 19 8 22 63 3 56 5 62 26 65 13
2 22 -2 23 -10 0 -7 1 -35 2 -63 2 -43 5 -50 22 -50 18 0 20 8 23 63 3 58 4
62 27 62 23 0 24 -4 27 -62 2 -48 7 -63 18 -63 11 0 16 15 18 61 3 55 1 62
-18 67 -11 3 -20 12 -20 21 0 14 -15 16 -95 16 l-95 0 0 -85z"/>
<path d="M7000 4225 c0 -8 -7 -15 -15 -15 -11 0 -15 -12 -15 -50 0 -36 4 -50
14 -50 7 0 16 -9 19 -20 4 -15 14 -20 41 -20 29 0 36 4 36 20 0 13 7 20 20 20
17 0 20 7 20 45 0 35 -4 45 -16 45 -9 0 -18 9 -21 20 -4 16 -14 20 -44 20 -28
0 -39 -4 -39 -15z m78 -67 c-3 -40 -5 -43 -35 -46 -33 -3 -33 -3 -33 42 0 46
0 46 36 46 l35 0 -3 -42z"/>
<path d="M4480 3950 l0 -30 99 0 99 0 -2 30 -1 30 -97 0 -98 0 0 -30z"/>
<path d="M4740 3945 c0 -32 2 -35 30 -35 28 0 30 3 30 35 0 32 -2 35 -30 35
-28 0 -30 -3 -30 -35z"/>
<path d="M4880 3948 l0 -33 160 0 160 0 0 33 0 32 -160 0 -160 0 0 -32z"/>
<path d="M5270 3944 c0 -33 2 -36 23 -30 12 3 57 6 100 6 l77 0 0 30 0 30
-100 0 -100 0 0 -36z"/>
<path d="M5530 3950 l0 -30 100 0 100 0 0 30 0 30 -100 0 -100 0 0 -30z"/>
<path d="M5800 3950 c0 -27 3 -30 30 -30 27 0 30 3 30 30 0 27 -3 30 -30 30
-27 0 -30 -3 -30 -30z"/>
<path d="M5930 3948 l0 -33 265 3 265 3 0 29 0 30 -265 0 -265 0 0 -32z"/>
<path d="M4480 3815 l0 -35 130 0 130 0 0 35 0 35 -130 0 -130 0 0 -35z"/>
<path d="M4807 3843 c-2 -5 -3 -19 -3 -33 1 -21 7 -26 34 -28 31 -3 32 -2 32
32 0 33 -2 36 -29 36 -17 0 -32 -3 -34 -7z"/>
<path d="M4940 3815 c0 -35 1 -35 43 -35 70 0 87 8 87 41 0 29 0 29 -65 29
l-65 0 0 -35z"/>
<path d="M5132 3818 l3 -33 130 0 130 0 3 33 3 32 -136 0 -136 0 3 -32z"/>
<path d="M5470 3815 l0 -35 163 2 162 3 0 30 0 30 -162 3 -163 2 0 -35z"/>
<path d="M5862 3818 l3 -33 195 0 195 0 3 33 3 32 -201 0 -201 0 3 -32z"/>
<path d="M6327 3843 c-10 -10 -8 -51 3 -58 5 -3 21 -3 35 1 19 5 25 12 25 35
0 25 -4 29 -28 29 -16 0 -32 -3 -35 -7z"/>
<path d="M6456 3824 c-4 -15 -3 -31 2 -36 5 -5 49 -8 98 -6 l89 3 3 33 3 32
-94 0 c-94 0 -95 0 -101 -26z"/>
<path d="M3818 3713 c0 -5 -1 -19 -2 -33 -1 -21 -7 -26 -33 -28 -30 -3 -33 -6
-33 -38 0 -31 -2 -34 -30 -34 -27 0 -30 -3 -30 -30 0 -28 -3 -30 -35 -30 l-35
0 0 -129 0 -130 33 -3 c28 -3 32 -7 35 -35 3 -29 7 -33 33 -33 27 0 29 -3 29
-35 0 -33 2 -35 36 -35 33 0 35 -2 32 -27 l-3 -28 -198 -3 -198 -2 1 227 2
228 -31 3 -31 3 -2 -153 c-2 -84 -3 -184 -4 -223 -2 -163 -1 -155 -34 -155
-27 0 -30 -3 -30 -30 0 -17 -5 -30 -12 -31 -7 0 -60 0 -118 0 -130 0 -140 -2
-140 -39 0 -24 -5 -29 -27 -32 l-28 -3 -3 -127 -3 -128 30 0 c26 0 30 -4 33
-32 l3 -33 130 -5 130 -5 3 -27 c3 -21 9 -27 30 -30 21 -2 28 -9 32 -33 l5
-30 295 0 295 0 3 33 3 32 1449 0 1449 0 3 -32 3 -33 295 0 295 0 3 33 c3 28
7 32 33 32 26 0 29 3 29 30 l0 30 129 0 c136 0 141 2 141 50 0 13 9 20 28 22
l27 3 0 125 0 125 -27 3 c-20 2 -28 10 -33 33 -6 27 -10 29 -53 29 -26 0 -84
3 -129 7 l-83 6 0 28 c0 26 -3 29 -35 29 l-35 0 0 360 0 360 -30 0 -30 0 0
-325 0 -325 -265 0 -265 0 0 -35 0 -35 -1450 0 -1450 0 0 35 0 35 100 0 100 0
0 30 c0 27 3 30 30 30 28 0 30 3 30 35 0 33 2 35 35 35 l35 0 0 -65 0 -65 65
0 65 0 0 66 0 66 -37 -2 c-90 -4 -93 -3 -93 36 0 35 1 36 30 32 l30 -5 0 134
0 133 -30 0 c-27 0 -30 3 -30 29 0 26 -4 30 -32 33 -29 3 -33 7 -36 36 -3 28
-7 32 -32 32 -25 0 -29 4 -32 33 l-3 32 -162 3 c-90 1 -164 -1 -165 -5z m-95
-210 c-13 -2 -24 -13 -26 -26 -4 -18 -5 -17 -6 6 -1 23 3 27 27 26 22 -1 23
-2 5 -6z m227 -548 l0 -35 1450 0 1450 0 0 35 0 35 294 0 295 0 3 -32 c3 -29
7 -33 36 -36 l32 -3 0 -195 0 -194 -35 0 c-32 0 -35 -2 -35 -30 l0 -30 -296 0
-295 0 3 28 3 27 -1457 3 -1458 2 0 -30 0 -30 -293 0 -293 0 0 28 c1 23 -3 27
-31 30 l-33 3 0 195 0 194 30 0 c28 0 30 3 30 35 l0 35 300 0 300 0 0 -35z"/>
</g>
</svg>
